<?xml version="1.0" encoding="UTF-8"?>
<svg width="120" height="120" viewBox="0 0 120 120" xmlns="http://www.w3.org/2000/svg" role="img" aria-label="Game League">
    <defs>
        <linearGradient id="gl-gradient" x1="0%" y1="100%" x2="100%" y2="0%">
            <stop offset="0%" stop-color="#1e3a8a"/>
            <stop offset="45%" stop-color="#6366f1"/>
            <stop offset="75%" stop-color="#f97316"/>
            <stop offset="100%" stop-color="#facc15"/>
        </linearGradient>
        <linearGradient id="gl-accent" x1="0%" y1="0%" x2="100%" y2="100%">
            <stop offset="0%" stop-color="#0ea5e9"/>
            <stop offset="100%" stop-color="#a855f7"/>
        </linearGradient>
    </defs>
    <rect width="120" height="120" rx="24" fill="rgba(15, 23, 42, 0.8)"/>
    <g transform="translate(15, 18)">
        <rect x="0" y="56" width="10" height="30" rx="2" fill="url(#gl-gradient)" opacity="0.85"/>
        <rect x="16" y="44" width="10" height="42" rx="2" fill="url(#gl-gradient)" opacity="0.85"/>
        <rect x="32" y="32" width="10" height="54" rx="2" fill="url(#gl-gradient)" opacity="0.85"/>
        <rect x="48" y="20" width="10" height="66" rx="2" fill="url(#gl-gradient)" opacity="0.85"/>
        <path d="M68 68 L68 32 L88 52 L78 52 L78 68 Z" fill="url(#gl-gradient)" opacity="0.6"/>
        <path d="M65 29 L95 29 L80 14 L93 0 L110 16 L86 40 L72 26 Z" fill="url(#gl-accent)"/>
        <path d="M50 38 L65 23 L74 32 L59 47 Z" fill="url(#gl-accent)" opacity="0.9"/>
    </g>
    <text x="60" y="104" text-anchor="middle" font-family="Bungee, 'Rubik', sans-serif" font-size="18" fill="url(#gl-gradient)" font-weight="700" letter-spacing="0.2em" text-transform="uppercase">
        Game League
    </text>
</svg>
